<svg xmlns="http://www.w3.org/2000/svg" xmlns:xlink="http://www.w3.org/1999/xlink" width="2000" zoomAndPan="magnify" viewBox="0 0 1500 1499.999933" height="2000" preserveAspectRatio="xMidYMid meet" version="1.0"><defs><clipPath id="ffe58f9ddb"><path d="M 375 340.5 L 1194 340.5 L 1194 1159 L 375 1159 Z M 375 340.5 " clip-rule="nonzero"/></clipPath></defs><g clip-path="url(#ffe58f9ddb)"><path fill="#ff6b35" d="M 987.5625 395.65625 C 972.105469 386.632812 956.117188 378.65625 939.609375 371.761719 C 923.09375 364.855469 906.1875 359.074219 888.910156 354.414062 C 871.625 349.753906 854.113281 346.261719 836.355469 343.933594 C 818.609375 341.601562 800.789062 340.460938 782.882812 340.5 L 407.09375 340.5 C 404.910156 340.5 402.753906 340.710938 400.605469 341.140625 C 398.46875 341.558594 396.394531 342.1875 394.378906 343.027344 C 392.363281 343.863281 390.445312 344.882812 388.628906 346.097656 C 386.824219 347.308594 385.136719 348.683594 383.601562 350.230469 C 382.050781 351.769531 380.675781 353.445312 379.46875 355.261719 C 378.25 357.078125 377.234375 358.996094 376.394531 361.011719 C 375.554688 363.027344 374.925781 365.105469 374.507812 367.242188 C 374.078125 369.382812 373.867188 371.539062 373.867188 373.726562 L 373.867188 1125.378906 C 373.867188 1127.554688 374.078125 1129.722656 374.507812 1131.859375 C 374.925781 1133.992188 375.554688 1136.078125 376.394531 1138.09375 C 377.234375 1140.109375 378.25 1142.015625 379.46875 1143.832031 C 380.675781 1145.648438 382.050781 1147.328125 383.601562 1148.875 C 385.136719 1150.410156 386.824219 1151.789062 388.628906 1153.007812 C 390.445312 1154.214844 392.363281 1155.242188 394.378906 1156.070312 C 396.394531 1156.90625 398.46875 1157.535156 400.605469 1157.964844 C 402.753906 1158.394531 404.910156 1158.605469 407.09375 1158.605469 L 782.882812 1158.605469 C 788.492188 1158.644531 794.101562 1158.578125 799.699219 1158.386719 C 805.308594 1158.195312 810.898438 1157.898438 816.496094 1157.476562 C 822.085938 1157.058594 827.664062 1156.53125 833.234375 1155.882812 C 838.800781 1155.230469 844.359375 1154.472656 849.890625 1153.59375 C 855.425781 1152.71875 860.949219 1151.730469 866.445312 1150.621094 C 871.945312 1149.523438 877.414062 1148.304688 882.863281 1146.980469 C 888.304688 1145.648438 893.722656 1144.203125 899.109375 1142.65625 C 904.5 1141.109375 909.847656 1139.441406 915.167969 1137.675781 C 920.488281 1135.898438 925.769531 1134.023438 931.015625 1132.027344 C 936.257812 1130.042969 941.457031 1127.945312 946.605469 1125.738281 C 951.765625 1123.535156 956.875 1121.226562 961.9375 1118.8125 C 966.996094 1116.40625 972.003906 1113.882812 976.964844 1111.265625 C 981.914062 1108.652344 986.816406 1105.925781 991.667969 1103.101562 C 996.507812 1100.285156 1001.296875 1097.363281 1006.019531 1094.347656 C 1010.746094 1091.324219 1015.410156 1088.210938 1020 1085.007812 C 1024.601562 1081.792969 1029.132812 1078.488281 1033.59375 1075.097656 C 1038.054688 1071.691406 1042.4375 1068.207031 1046.757812 1064.636719 C 1051.078125 1061.054688 1055.320312 1057.390625 1059.480469 1053.636719 C 1063.652344 1049.882812 1067.734375 1046.050781 1071.746094 1042.128906 C 1075.75 1038.214844 1079.679688 1034.214844 1083.523438 1030.132812 C 1087.367188 1026.046875 1091.128906 1021.886719 1094.800781 1017.65625 C 1098.472656 1013.414062 1102.058594 1009.101562 1105.550781 1004.71875 C 1109.050781 1000.339844 1112.457031 995.886719 1115.757812 991.355469 C 1119.074219 986.835938 1122.296875 982.242188 1125.417969 977.59375 C 1128.542969 972.929688 1131.570312 968.222656 1134.492188 963.441406 C 1137.425781 958.660156 1140.25 953.816406 1142.984375 948.917969 C 1145.71875 944.015625 1148.34375 939.066406 1150.867188 934.0625 C 1153.390625 929.054688 1155.820312 924.003906 1158.132812 918.894531 C 1160.449219 913.792969 1162.664062 908.644531 1164.773438 903.445312 C 1166.878906 898.242188 1168.871094 893.011719 1170.769531 887.734375 C 1172.65625 882.453125 1174.441406 877.132812 1176.109375 871.785156 C 1177.785156 866.433594 1179.34375 861.054688 1180.800781 855.636719 C 1182.246094 850.214844 1183.582031 844.777344 1184.808594 839.308594 C 1186.039062 833.828125 1187.144531 828.339844 1188.15625 822.816406 C 1189.152344 817.308594 1190.039062 811.769531 1190.808594 806.21875 C 1191.589844 800.660156 1192.246094 795.089844 1192.785156 789.511719 C 1193.324219 783.933594 1193.753906 778.34375 1194.070312 772.746094 C 1194.378906 767.144531 1194.582031 761.546875 1194.660156 755.9375 C 1194.75 750.335938 1194.710938 744.726562 1194.574219 739.117188 C 1194.421875 733.519531 1194.152344 727.921875 1193.78125 722.320312 C 1193.40625 716.730469 1192.902344 711.140625 1192.296875 705.574219 C 1191.6875 699.992188 1190.96875 694.433594 1190.128906 688.894531 C 1189.292969 683.347656 1188.34375 677.824219 1187.277344 672.316406 C 1186.21875 666.816406 1185.039062 661.335938 1183.753906 655.878906 C 1182.453125 650.417969 1181.058594 644.988281 1179.542969 639.585938 C 1178.035156 634.1875 1176.40625 628.832031 1174.671875 623.5 C 1172.945312 618.160156 1171.097656 612.867188 1169.152344 607.609375 C 1167.195312 602.359375 1165.140625 597.140625 1162.972656 591.96875 C 1160.808594 586.796875 1158.53125 581.679688 1156.15625 576.597656 C 1153.785156 571.519531 1151.296875 566.488281 1148.710938 561.519531 C 1146.128906 556.539062 1143.445312 551.617188 1140.660156 546.753906 C 1137.875 541.882812 1134.988281 537.082031 1131.996094 532.332031 C 1129.011719 527.589844 1125.9375 522.902344 1122.753906 518.289062 C 1119.582031 513.667969 1116.308594 509.117188 1112.941406 504.625 C 1109.582031 500.144531 1106.125 495.722656 1102.585938 491.382812 C 1099.03125 487.039062 1095.398438 482.777344 1091.675781 478.578125 C 1087.953125 474.382812 1084.152344 470.273438 1080.257812 466.242188 C 1076.367188 462.199219 1072.394531 458.246094 1068.34375 454.371094 C 1064.289062 450.5 1060.160156 446.707031 1055.949219 443.003906 C 1051.734375 439.300781 1047.457031 435.6875 1043.09375 432.15625 C 1038.742188 428.632812 1034.3125 425.199219 1029.808594 421.855469 C 1025.308594 418.511719 1020.738281 415.257812 1016.105469 412.101562 C 1011.476562 408.941406 1006.777344 405.886719 1002.015625 402.921875 C 997.253906 399.957031 992.445312 397.089844 987.5625 394.328125 Z M 440.316406 406.953125 L 536.015625 406.953125 C 517.324219 419.910156 499.949219 434.421875 483.871094 450.5 C 467.792969 466.582031 453.269531 483.964844 440.316406 502.660156 Z M 954.003906 1046.289062 C 941.058594 1053.785156 927.683594 1060.394531 913.871094 1066.121094 C 900.046875 1071.851562 885.917969 1076.652344 871.476562 1080.527344 C 857.023438 1084.398438 842.394531 1087.3125 827.5625 1089.25 C 812.734375 1091.195312 797.84375 1092.164062 782.882812 1092.144531 L 440.316406 1092.144531 L 440.316406 905.402344 C 447.441406 914.441406 455.054688 923.058594 463.148438 931.242188 C 471.242188 939.425781 479.777344 947.121094 488.75 954.347656 C 497.710938 961.574219 507.054688 968.257812 516.785156 974.425781 C 526.503906 980.59375 536.535156 986.195312 546.894531 991.226562 C 557.246094 996.265625 567.851562 1000.699219 578.699219 1004.542969 C 589.558594 1008.375 600.597656 1011.585938 611.816406 1014.183594 C 623.035156 1016.769531 634.359375 1018.722656 645.796875 1020.03125 C 657.234375 1021.347656 668.703125 1022.015625 680.21875 1022.027344 C 684.339844 1022.027344 688.453125 1021.917969 692.574219 1021.707031 C 696.6875 1021.507812 700.796875 1021.199219 704.890625 1020.789062 C 708.992188 1020.378906 713.082031 1019.871094 717.152344 1019.261719 C 721.226562 1018.652344 725.289062 1017.945312 729.328125 1017.136719 C 733.371094 1016.328125 737.382812 1015.417969 741.386719 1014.421875 C 745.378906 1013.414062 749.351562 1012.316406 753.292969 1011.109375 C 757.234375 1009.910156 761.144531 1008.613281 765.019531 1007.226562 C 768.898438 1005.835938 772.742188 1004.351562 776.542969 1002.773438 C 780.347656 1001.1875 784.121094 999.519531 787.84375 997.753906 C 791.566406 995.988281 795.238281 994.140625 798.871094 992.191406 C 802.503906 990.25 806.097656 988.210938 809.628906 986.097656 C 813.160156 983.980469 816.636719 981.773438 820.058594 979.480469 C 823.492188 977.191406 826.855469 974.816406 830.167969 972.363281 C 833.472656 969.90625 836.714844 967.371094 839.910156 964.757812 C 843.09375 962.140625 846.207031 959.445312 849.257812 956.683594 C 852.316406 953.917969 855.300781 951.074219 858.210938 948.15625 C 861.128906 945.246094 863.960938 942.261719 866.734375 939.214844 C 869.5 936.160156 872.183594 933.035156 874.800781 929.851562 C 877.414062 926.667969 879.949219 923.425781 882.40625 920.113281 C 884.859375 916.808594 887.234375 913.433594 889.53125 910.011719 C 891.816406 906.589844 894.019531 903.105469 896.136719 899.570312 C 898.261719 896.039062 900.289062 892.453125 902.234375 888.820312 C 904.183594 885.191406 906.039062 881.503906 907.800781 877.78125 C 909.558594 874.058594 911.238281 870.296875 912.8125 866.492188 C 914.390625 862.683594 915.878906 858.839844 917.265625 854.964844 C 918.660156 851.085938 919.957031 847.171875 921.15625 843.230469 C 922.355469 839.289062 923.453125 835.324219 924.460938 831.324219 C 925.46875 827.328125 926.375 823.308594 927.183594 819.265625 C 927.984375 815.234375 928.691406 811.171875 929.300781 807.097656 C 929.910156 803.015625 930.417969 798.933594 930.828125 794.832031 C 931.234375 790.730469 931.546875 786.617188 931.753906 782.503906 C 931.964844 778.394531 932.066406 774.269531 932.074219 770.148438 C 932.074219 766.746094 931.996094 763.339844 931.828125 759.9375 C 931.65625 756.535156 931.40625 753.140625 931.078125 749.75 C 930.738281 746.367188 930.320312 742.980469 929.820312 739.617188 C 929.320312 736.246094 928.742188 732.890625 928.082031 729.546875 C 927.414062 726.203125 926.664062 722.878906 925.847656 719.574219 C 925.019531 716.269531 924.109375 712.988281 923.125 709.734375 C 922.136719 706.46875 921.066406 703.238281 919.921875 700.035156 C 918.769531 696.820312 917.554688 693.644531 916.246094 690.5 C 914.949219 687.347656 913.570312 684.234375 912.117188 681.160156 C 910.660156 678.074219 909.132812 675.03125 907.523438 672.027344 C 905.917969 669.023438 904.242188 666.058594 902.492188 663.132812 C 900.75 660.21875 898.921875 657.335938 897.035156 654.5 C 895.136719 651.664062 893.183594 648.878906 891.15625 646.144531 C 889.132812 643.414062 887.035156 640.726562 884.878906 638.09375 C 882.722656 635.457031 880.5 632.871094 878.210938 630.34375 C 875.925781 627.820312 873.582031 625.355469 871.179688 622.941406 C 868.769531 620.535156 866.304688 618.191406 863.78125 615.894531 C 861.257812 613.609375 858.683594 611.382812 856.046875 609.21875 C 853.421875 607.050781 850.738281 604.957031 848.003906 602.917969 C 845.269531 600.894531 842.484375 598.925781 839.660156 597.03125 C 836.824219 595.132812 833.949219 593.316406 831.039062 591.5625 C 828.113281 589.804688 825.148438 588.128906 822.15625 586.511719 C 819.148438 584.902344 816.105469 583.367188 813.035156 581.90625 C 809.960938 580.453125 806.84375 579.0625 803.699219 577.757812 C 800.558594 576.449219 797.375 575.222656 794.171875 574.074219 C 790.96875 572.917969 787.734375 571.847656 784.480469 570.847656 C 781.21875 569.859375 777.941406 568.945312 774.636719 568.117188 C 771.335938 567.289062 768.015625 566.527344 764.667969 565.859375 C 761.335938 565.191406 757.984375 564.613281 754.609375 564.105469 C 751.246094 563.59375 747.863281 563.175781 744.46875 562.835938 C 741.085938 562.496094 737.691406 562.246094 734.289062 562.066406 C 730.886719 561.898438 727.484375 561.808594 724.078125 561.808594 C 721.234375 561.796875 718.402344 561.867188 715.566406 561.996094 C 712.734375 562.125 709.898438 562.335938 707.074219 562.605469 C 704.25 562.875 701.4375 563.226562 698.621094 563.632812 C 695.816406 564.042969 693.011719 564.523438 690.226562 565.070312 C 687.441406 565.621094 684.679688 566.238281 681.921875 566.917969 C 679.167969 567.605469 676.4375 568.355469 673.710938 569.171875 C 670.996094 569.992188 668.300781 570.878906 665.625 571.828125 C 662.953125 572.785156 660.296875 573.792969 657.671875 574.882812 C 655.046875 575.960938 652.453125 577.105469 649.886719 578.316406 C 647.324219 579.523438 644.777344 580.792969 642.273438 582.128906 C 639.769531 583.464844 637.292969 584.855469 634.855469 586.3125 C 632.421875 587.765625 630.019531 589.273438 627.664062 590.851562 C 625.296875 592.425781 622.972656 594.054688 620.6875 595.742188 C 618.410156 597.429688 616.164062 599.164062 613.972656 600.960938 C 611.773438 602.757812 609.621094 604.617188 607.511719 606.511719 C 605.40625 608.417969 603.34375 610.375 601.335938 612.371094 C 599.320312 614.375 597.363281 616.433594 595.457031 618.527344 C 593.542969 620.625 591.683594 622.769531 589.878906 624.96875 C 588.070312 627.152344 586.324219 629.386719 584.628906 631.664062 C 582.929688 633.941406 581.296875 636.265625 579.71875 638.621094 C 578.132812 640.976562 576.617188 643.371094 575.148438 645.796875 C 573.679688 648.230469 572.28125 650.695312 570.9375 653.203125 C 569.597656 655.695312 568.3125 658.230469 567.09375 660.796875 C 565.875 663.363281 564.71875 665.957031 563.632812 668.574219 C 562.542969 671.199219 561.515625 673.84375 560.546875 676.507812 C 559.585938 679.183594 558.691406 681.875 557.863281 684.59375 C 557.03125 687.304688 556.277344 690.042969 555.578125 692.796875 C 554.890625 695.542969 554.261719 698.316406 553.699219 701.089844 C 553.140625 703.875 552.652344 706.667969 552.222656 709.484375 C 551.804688 712.289062 551.457031 715.105469 551.167969 717.929688 C 550.886719 720.753906 550.664062 723.589844 550.527344 726.421875 C 550.378906 729.257812 550.308594 732.09375 550.296875 734.925781 C 550.296875 739.6875 550.539062 744.429688 550.996094 749.15625 C 551.464844 753.902344 552.164062 758.589844 553.09375 763.261719 C 554.019531 767.921875 555.167969 772.535156 556.554688 777.085938 C 557.933594 781.636719 559.527344 786.109375 561.355469 790.5 C 563.171875 794.890625 565.207031 799.183594 567.445312 803.386719 C 569.691406 807.578125 572.132812 811.648438 574.769531 815.601562 C 577.414062 819.5625 580.238281 823.375 583.261719 827.050781 C 586.277344 830.722656 589.46875 834.246094 592.832031 837.609375 C 596.195312 840.972656 599.710938 844.167969 603.390625 847.183594 C 607.066406 850.195312 610.878906 853.03125 614.828125 855.664062 C 618.789062 858.308594 622.863281 860.753906 627.054688 862.992188 C 631.246094 865.238281 635.535156 867.273438 639.9375 869.089844 C 644.328125 870.90625 648.800781 872.515625 653.351562 873.890625 C 657.902344 875.269531 662.515625 876.425781 667.175781 877.351562 C 671.835938 878.28125 676.535156 878.980469 681.265625 879.441406 C 685.996094 879.910156 690.746094 880.136719 695.496094 880.136719 C 699.519531 880.136719 703.519531 879.949219 707.511719 879.550781 C 711.515625 879.160156 715.476562 878.570312 719.417969 877.78125 C 723.363281 877.003906 727.246094 876.027344 731.09375 874.859375 C 734.9375 873.703125 738.710938 872.34375 742.425781 870.808594 C 746.125 869.269531 749.757812 867.550781 753.292969 865.667969 C 756.835938 863.769531 760.277344 861.703125 763.621094 859.476562 C 766.957031 857.242188 770.179688 854.855469 773.28125 852.3125 C 776.386719 849.765625 779.359375 847.074219 782.195312 844.226562 C 785.039062 841.394531 787.734375 838.417969 790.277344 835.3125 C 792.824219 832.210938 795.207031 828.988281 797.445312 825.644531 C 799.679688 822.308594 801.734375 818.867188 803.632812 815.324219 C 805.515625 811.789062 807.234375 808.15625 808.773438 804.453125 C 810.308594 800.742188 811.667969 796.957031 812.824219 793.113281 C 813.992188 789.273438 814.96875 785.390625 815.746094 781.445312 C 816.535156 777.503906 817.125 773.542969 817.515625 769.539062 C 817.914062 765.546875 818.101562 761.546875 818.101562 757.523438 C 818.101562 755.347656 817.894531 753.183594 817.464844 751.046875 C 817.042969 748.898438 816.417969 746.824219 815.578125 744.808594 C 814.742188 742.789062 813.722656 740.875 812.503906 739.066406 C 811.296875 737.25 809.917969 735.574219 808.375 734.027344 C 806.835938 732.480469 805.160156 731.105469 803.34375 729.894531 C 801.527344 728.6875 799.609375 727.660156 797.59375 726.820312 C 795.578125 725.992188 793.5 725.363281 791.367188 724.9375 C 789.21875 724.507812 787.066406 724.296875 784.878906 724.296875 C 782.703125 724.296875 780.539062 724.507812 778.402344 724.9375 C 776.253906 725.363281 774.179688 725.992188 772.164062 726.820312 C 770.148438 727.660156 768.234375 728.6875 766.417969 729.894531 C 764.609375 731.105469 762.933594 732.480469 761.386719 734.027344 C 759.839844 735.574219 758.460938 737.25 757.253906 739.066406 C 756.035156 740.875 755.019531 742.789062 754.179688 744.808594 C 753.351562 746.824219 752.710938 748.898438 752.292969 751.046875 C 751.863281 753.183594 751.65625 755.347656 751.65625 757.523438 C 751.65625 759.367188 751.566406 761.195312 751.386719 763.03125 C 751.203125 764.859375 750.9375 766.675781 750.578125 768.484375 C 750.21875 770.289062 749.769531 772.066406 749.242188 773.832031 C 748.703125 775.589844 748.082031 777.316406 747.382812 779.011719 C 746.675781 780.71875 745.886719 782.375 745.019531 784.003906 C 744.160156 785.621094 743.214844 787.195312 742.195312 788.722656 C 741.167969 790.25 740.078125 791.726562 738.910156 793.15625 C 737.742188 794.574219 736.507812 795.929688 735.207031 797.238281 C 733.910156 798.535156 732.542969 799.773438 731.125 800.941406 C 729.699219 802.097656 728.222656 803.195312 726.695312 804.222656 C 725.167969 805.242188 723.589844 806.191406 721.972656 807.050781 C 720.347656 807.914062 718.691406 808.707031 716.984375 809.402344 C 715.289062 810.113281 713.5625 810.730469 711.804688 811.261719 C 710.039062 811.800781 708.261719 812.25 706.457031 812.605469 C 704.648438 812.96875 702.832031 813.234375 701.007812 813.417969 C 699.167969 813.59375 697.34375 813.683594 695.496094 813.683594 C 692.921875 813.683594 690.347656 813.554688 687.78125 813.308594 C 685.21875 813.046875 682.664062 812.679688 680.136719 812.167969 C 677.613281 811.667969 675.105469 811.039062 672.640625 810.292969 C 670.179688 809.542969 667.75 808.675781 665.367188 807.6875 C 662.980469 806.699219 660.65625 805.601562 658.378906 804.382812 C 656.105469 803.164062 653.902344 801.847656 651.753906 800.410156 C 649.609375 798.972656 647.53125 797.445312 645.546875 795.808594 C 643.550781 794.171875 641.644531 792.4375 639.820312 790.621094 C 637.992188 788.792969 636.265625 786.886719 634.628906 784.890625 C 632.992188 782.894531 631.453125 780.828125 630.027344 778.683594 C 628.589844 776.535156 627.265625 774.332031 626.054688 772.054688 C 624.839844 769.78125 623.730469 767.453125 622.753906 765.070312 C 621.761719 762.683594 620.898438 760.257812 620.148438 757.792969 C 619.398438 755.316406 618.773438 752.824219 618.261719 750.296875 C 617.761719 747.761719 617.382812 745.214844 617.132812 742.648438 C 616.882812 740.085938 616.757812 737.511719 616.757812 734.925781 C 616.757812 731.433594 616.925781 727.949219 617.265625 724.476562 C 617.613281 720.992188 618.121094 717.546875 618.800781 714.113281 C 619.488281 710.695312 620.328125 707.308594 621.34375 703.964844 C 622.363281 700.621094 623.53125 697.339844 624.867188 694.113281 C 626.207031 690.882812 627.703125 687.726562 629.347656 684.640625 C 630.996094 681.566406 632.792969 678.574219 634.730469 675.671875 C 636.664062 672.765625 638.75 669.960938 640.964844 667.265625 C 643.179688 664.5625 645.527344 661.976562 647.992188 659.5 C 650.46875 657.035156 653.054688 654.691406 655.746094 652.472656 C 658.453125 650.257812 661.253906 648.183594 664.160156 646.234375 C 667.066406 644.300781 670.046875 642.503906 673.132812 640.855469 C 676.214844 639.210938 679.367188 637.722656 682.59375 636.386719 C 685.828125 635.046875 689.109375 633.867188 692.453125 632.851562 C 695.796875 631.84375 699.179688 630.996094 702.601562 630.316406 C 706.027344 629.628906 709.476562 629.117188 712.953125 628.777344 C 716.433594 628.429688 719.917969 628.261719 723.414062 628.261719 C 728.050781 628.269531 732.683594 628.511719 737.292969 628.976562 C 741.914062 629.4375 746.496094 630.125 751.046875 631.046875 C 755.585938 631.960938 760.089844 633.09375 764.519531 634.449219 C 768.960938 635.804688 773.324219 637.371094 777.605469 639.160156 C 781.882812 640.945312 786.078125 642.933594 790.160156 645.125 C 794.25 647.3125 798.222656 649.707031 802.074219 652.292969 C 805.925781 654.871094 809.652344 657.644531 813.234375 660.585938 C 816.816406 663.535156 820.238281 666.65625 823.523438 669.9375 C 826.792969 673.226562 829.910156 676.65625 832.84375 680.25 C 835.789062 683.84375 838.542969 687.566406 841.117188 691.429688 C 843.691406 695.28125 846.066406 699.265625 848.253906 703.359375 C 850.4375 707.449219 852.414062 711.640625 854.191406 715.929688 C 855.957031 720.214844 857.523438 724.585938 858.859375 729.027344 C 860.210938 733.46875 861.335938 737.960938 862.234375 742.511719 C 863.144531 747.0625 863.824219 751.644531 864.269531 756.265625 C 864.730469 760.886719 864.960938 765.507812 864.960938 770.148438 C 864.949219 773.183594 864.871094 776.214844 864.71875 779.242188 C 864.5625 782.273438 864.339844 785.300781 864.03125 788.316406 C 863.730469 791.339844 863.351562 794.34375 862.902344 797.347656 C 862.453125 800.34375 861.933594 803.328125 861.335938 806.300781 C 860.75 809.273438 860.078125 812.238281 859.332031 815.171875 C 858.59375 818.117188 857.78125 821.042969 856.894531 823.9375 C 856.015625 826.839844 855.058594 829.714844 854.039062 832.578125 C 853.011719 835.433594 851.914062 838.257812 850.757812 841.0625 C 849.589844 843.859375 848.363281 846.632812 847.066406 849.367188 C 845.765625 852.109375 844.398438 854.816406 842.964844 857.492188 C 841.535156 860.167969 840.039062 862.800781 838.484375 865.40625 C 836.914062 868 835.300781 870.566406 833.609375 873.089844 C 831.925781 875.609375 830.179688 878.089844 828.375 880.527344 C 826.566406 882.960938 824.699219 885.347656 822.773438 887.695312 C 820.847656 890.039062 818.863281 892.332031 816.824219 894.578125 C 814.789062 896.824219 812.703125 899.023438 810.558594 901.167969 C 808.410156 903.3125 806.21875 905.402344 803.972656 907.4375 C 801.726562 909.472656 799.429688 911.460938 797.085938 913.386719 C 794.742188 915.3125 792.34375 917.175781 789.910156 918.984375 C 787.472656 920.789062 785 922.539062 782.484375 924.222656 C 779.957031 925.910156 777.394531 927.527344 774.800781 929.09375 C 772.195312 930.652344 769.558594 932.148438 766.882812 933.574219 C 764.210938 935.015625 761.507812 936.382812 758.761719 937.679688 C 756.027344 938.976562 753.25 940.203125 750.449219 941.371094 C 747.652344 942.527344 744.816406 943.628906 741.964844 944.65625 C 739.109375 945.671875 736.234375 946.628906 733.332031 947.507812 C 730.4375 948.398438 727.511719 949.207031 724.570312 949.953125 C 721.632812 950.691406 718.671875 951.363281 715.695312 951.949219 C 712.722656 952.550781 709.738281 953.070312 706.746094 953.519531 C 703.738281 953.96875 700.738281 954.347656 697.714844 954.644531 C 694.699219 954.953125 691.675781 955.175781 688.640625 955.335938 C 685.617188 955.484375 682.582031 955.566406 679.550781 955.574219 C 675.636719 955.554688 671.734375 955.445312 667.832031 955.234375 C 663.917969 955.035156 660.027344 954.726562 656.136719 954.324219 C 652.242188 953.9375 648.363281 953.441406 644.5 952.859375 C 640.636719 952.273438 636.785156 951.59375 632.953125 950.8125 C 629.117188 950.035156 625.308594 949.167969 621.515625 948.210938 C 617.722656 947.25 613.960938 946.191406 610.21875 945.042969 C 606.476562 943.90625 602.773438 942.667969 599.089844 941.339844 C 595.40625 940.015625 591.765625 938.597656 588.152344 937.097656 C 584.546875 935.59375 580.976562 934.003906 577.445312 932.320312 C 573.910156 930.644531 570.417969 928.875 566.972656 927.03125 C 563.53125 925.183594 560.125 923.246094 556.773438 921.230469 C 553.429688 919.222656 550.125 917.128906 546.875 914.953125 C 543.628906 912.773438 540.4375 910.519531 537.292969 908.1875 C 534.148438 905.851562 531.074219 903.445312 528.050781 900.957031 C 525.027344 898.484375 522.074219 895.929688 519.167969 893.292969 C 516.273438 890.667969 513.441406 887.972656 510.675781 885.207031 C 507.910156 882.441406 505.214844 879.609375 502.59375 876.714844 C 499.96875 873.820312 497.414062 870.855469 494.929688 867.832031 C 492.441406 864.808594 490.039062 861.734375 487.703125 858.589844 C 485.378906 855.457031 483.121094 852.261719 480.945312 849.007812 C 478.769531 845.753906 476.671875 842.460938 474.65625 839.105469 C 472.640625 835.753906 470.703125 832.351562 468.859375 828.90625 C 467.011719 825.464844 465.246094 821.96875 463.570312 818.4375 C 461.894531 814.902344 460.296875 811.328125 458.800781 807.726562 C 457.292969 804.113281 455.875 800.46875 454.546875 796.789062 C 453.222656 793.113281 451.984375 789.402344 450.847656 785.65625 C 449.699219 781.925781 448.652344 778.152344 447.683594 774.363281 C 446.726562 770.578125 445.855469 766.765625 445.078125 762.933594 C 444.308594 759.089844 443.621094 755.246094 443.039062 751.375 C 442.453125 747.511719 441.960938 743.628906 441.5625 739.738281 C 441.164062 735.855469 440.867188 731.953125 440.65625 728.050781 C 440.445312 724.136719 440.335938 720.234375 440.316406 716.324219 C 440.308594 711.25 440.425781 706.191406 440.65625 701.128906 C 440.894531 696.070312 441.265625 691.019531 441.753906 685.980469 C 442.234375 680.929688 442.839844 675.90625 443.578125 670.898438 C 444.316406 665.878906 445.175781 660.886719 446.15625 655.917969 C 447.132812 650.949219 448.230469 646.003906 449.457031 641.09375 C 450.6875 636.175781 452.023438 631.292969 453.488281 626.445312 C 454.957031 621.59375 456.535156 616.78125 458.242188 612.011719 C 459.9375 607.238281 461.753906 602.511719 463.6875 597.828125 C 465.625 593.148438 467.671875 588.515625 469.828125 583.933594 C 471.992188 579.351562 474.269531 574.824219 476.65625 570.351562 C 479.027344 565.890625 481.523438 561.476562 484.128906 557.125 C 486.734375 552.785156 489.4375 548.503906 492.242188 544.292969 C 495.058594 540.078125 497.972656 535.9375 500.984375 531.863281 C 504.011719 527.792969 507.121094 523.800781 510.335938 519.878906 C 513.539062 515.964844 516.855469 512.132812 520.257812 508.378906 C 523.648438 504.617188 527.144531 500.953125 530.726562 497.371094 C 534.308594 493.789062 537.980469 490.292969 541.734375 486.890625 C 545.488281 483.496094 549.320312 480.183594 553.242188 476.96875 C 557.152344 473.753906 561.144531 470.640625 565.21875 467.628906 C 569.289062 464.613281 573.429688 461.699219 577.644531 458.882812 C 581.851562 456.078125 586.136719 453.367188 590.488281 450.769531 C 594.828125 448.164062 599.238281 445.667969 603.710938 443.28125 C 608.171875 440.898438 612.703125 438.632812 617.285156 436.464844 C 621.867188 434.3125 626.496094 432.253906 631.175781 430.328125 C 635.855469 428.390625 640.589844 426.574219 645.359375 424.867188 C 650.128906 423.171875 654.9375 421.585938 659.789062 420.128906 C 664.640625 418.660156 669.519531 417.3125 674.441406 416.097656 C 679.351562 414.867188 684.300781 413.773438 689.257812 412.792969 C 694.230469 411.804688 699.230469 410.957031 704.242188 410.21875 C 709.25 409.480469 714.277344 408.871094 719.320312 408.378906 C 724.359375 407.902344 729.410156 407.53125 734.46875 407.292969 C 739.527344 407.054688 744.601562 406.945312 749.660156 406.953125 L 782.882812 406.953125 C 788.492188 406.964844 794.089844 407.113281 799.6875 407.402344 C 805.289062 407.683594 810.878906 408.101562 816.457031 408.660156 C 822.035156 409.21875 827.59375 409.917969 833.132812 410.746094 C 838.683594 411.574219 844.199219 412.542969 849.699219 413.640625 C 855.191406 414.746094 860.65625 415.976562 866.097656 417.355469 C 871.527344 418.71875 876.925781 420.21875 882.292969 421.855469 C 887.65625 423.480469 892.972656 425.25 898.253906 427.144531 C 903.523438 429.03125 908.753906 431.058594 913.933594 433.203125 C 919.109375 435.347656 924.230469 437.625 929.292969 440.03125 C 934.359375 442.425781 939.359375 444.953125 944.3125 447.597656 C 949.25 450.242188 954.121094 453.003906 958.929688 455.890625 C 963.742188 458.765625 968.472656 461.769531 973.132812 464.882812 C 977.792969 467.996094 982.375 471.21875 986.875 474.566406 C 991.375 477.90625 995.796875 481.351562 1000.128906 484.902344 C 1004.460938 488.457031 1008.714844 492.121094 1012.863281 495.882812 C 1017.015625 499.644531 1021.078125 503.507812 1025.039062 507.46875 C 1029.011719 511.433594 1032.875 515.496094 1036.636719 519.636719 C 1040.410156 523.789062 1044.070312 528.03125 1047.636719 532.363281 C 1051.1875 536.695312 1054.640625 541.109375 1057.984375 545.609375 C 1061.328125 550.109375 1064.5625 554.691406 1067.675781 559.339844 C 1070.796875 564 1073.800781 568.734375 1076.6875 573.535156 C 1079.582031 578.347656 1082.347656 583.214844 1084.988281 588.15625 C 1087.644531 593.097656 1090.167969 598.097656 1092.574219 603.167969 C 1094.980469 608.226562 1097.257812 613.347656 1099.414062 618.519531 C 1101.566406 623.699219 1103.59375 628.917969 1105.488281 634.199219 C 1107.386719 639.46875 1109.152344 644.789062 1110.800781 650.148438 C 1112.433594 655.507812 1113.941406 660.90625 1115.308594 666.347656 C 1116.6875 671.777344 1117.925781 677.246094 1119.03125 682.746094 C 1120.140625 688.238281 1121.109375 693.753906 1121.945312 699.304688 C 1122.785156 704.84375 1123.480469 710.402344 1124.042969 715.984375 C 1124.613281 721.5625 1125.039062 727.140625 1125.328125 732.742188 C 1125.617188 738.339844 1125.769531 743.949219 1125.789062 749.550781 C 1125.769531 757.03125 1125.507812 764.507812 1125 771.964844 C 1124.492188 779.429688 1123.742188 786.875 1122.753906 794.292969 C 1121.757812 801.710938 1120.527344 809.082031 1119.050781 816.410156 C 1117.585938 823.746094 1115.867188 831.03125 1113.921875 838.246094 C 1111.976562 845.476562 1109.789062 852.628906 1107.375 859.707031 C 1104.960938 866.78125 1102.316406 873.78125 1099.441406 880.6875 C 1096.566406 887.59375 1093.472656 894.402344 1090.152344 901.109375 C 1086.835938 907.816406 1083.304688 914.402344 1079.550781 920.878906 C 1075.808594 927.359375 1071.84375 933.707031 1067.6875 939.914062 C 1063.523438 946.132812 1059.164062 952.210938 1054.597656 958.136719 C 1050.039062 964.070312 1045.300781 969.847656 1040.359375 975.46875 C 1035.417969 981.085938 1030.308594 986.546875 1025.007812 991.835938 C 1019.71875 997.113281 1014.261719 1002.222656 1008.632812 1007.15625 C 1003.003906 1012.085938 997.222656 1016.828125 991.285156 1021.378906 C 985.347656 1025.941406 979.269531 1030.292969 973.054688 1034.445312 C 966.835938 1038.597656 960.480469 1042.550781 954.003906 1046.289062 Z M 954.003906 1046.289062 " fill-opacity="1" fill-rule="nonzero"/></g></svg>